<svg xmlns="http://www.w3.org/2000/svg" viewBox="0 0 365 56">
  <style>
    .clogo0{fill:#233071}
    .clogo3{fill:#d21214}
  </style>
  <path class="clogo0" d="M188.7 39.7c-.1-.5-.3-1-.6-1.4-.3-.5-.6-.9-1-1.4-.2-.2-.4-.5-.7-.7l-.7-.7c-.2-.1-.6-.5-1.4-1.1-.5-.4-1.2-.9-1.6-1.2-.3-.2-.5-.4-.8-.6-.2-.2-.5-.4-.7-.6l-.4-.4-.3-.3c-.1-.2-.3-.4-.4-.6v-.2c0-.1-.1-.3-.2-.4-.1-.3-.2-.6-.2-.8v-.9c0-.2.2-.5.3-.7.1-.2.4-.4.6-.5.4-.1.8-.2 1.1 0 .1 0 .2 0 .3.1.1 0 .2.2.3.3l.3.6c.1.4.2.9.3 1.4v2.7l5.7-.7v-2.5c0-.5 0-1-.2-1.4 0-.5-.2-.9-.4-1.3-.1-.3-.2-.6-.4-.9 0-.1-.1-.2-.2-.3-.1-.2-.2-.3-.2-.3-.3-.4-.7-.7-1.1-.9-.1 0-.3-.1-.4-.2-.2 0-.5-.2-.7-.2-.3 0-.7-.1-1.2-.2H182.1c-.7 0-1.2.2-1.7.3-.7.2-1.3.3-1.8.6-.6.2-1.1.5-1.5.8-.5.3-.9.7-1.3 1.1-.1.1-.2.2-.3.4 0 0-.2.2-.2.3-.1.1-.2.3-.3.4-.1.2-.2.3-.3.5-.2.3-.3.6-.4.9 0 .2-.1.5-.2.7 0 .3 0 .5-.1.7v1.4c0 .7.3 1.4.6 2 .4.8 1 1.5 1.7 2.1.5.5 1 .9 1.5 1.2.3.2.8.6 1.5 1.1.2.2.4.3.6.5.5.4.7.5 1.1.9l.3.3.3.3c.2.2.4.5.6.8.1.2.3.4.3.6.1.2.2.5.2.7 0 .2.1.5.2.9v.8c0 .4 0 .7-.2 1.1 0 .1-.1.3-.2.4 0 .1-.2.2-.3.3 0 0-.2.1-.3.2-.3 0-.6.1-.9 0-.3 0-.5-.1-.7-.3 0 0-.1-.1-.2-.1-.1-.1-.2-.3-.3-.4 0-.1-.2-.4-.2-.5-.2-.6-.3-1.2-.3-1.9v-3.1l-6 .4v3.5c0 .6.2 1.1.4 1.6.2.7.6 1.3 1 1.9.3.3.6.7 1 1 .1 0 .3.2.4.3 0 0 .2.1.3.2.2.1.5.3.8.4.5.2 1.1.4 1.6.5.5.1 1 .2 1.4.2h1.4c.5 0 .9 0 1.4-.2.4 0 .8-.2 1.3-.3.3 0 .5-.2.8-.3.3-.1.5-.3.7-.4.2-.2.4-.3.5-.3.3-.2.5-.4.7-.6.2-.2.3-.3.4-.5.1-.1.2-.3.3-.4 0-.1.1-.2.2-.3 0-.2.2-.3.2-.5s.2-.4.2-.6c0-.2.1-.3.2-.6.2-.8.2-1.6.2-2.4 0-.7-.1-1.3-.3-1.9ZM171.8 25.5l-6.1 1.1v16.7c0 .4 0 .8-.1 1.2 0 .2-.1.4-.2.6 0 .2-.2.3-.3.4l-.2.2c-.3.2-.6.3-.9.3-.4 0-.7 0-.9-.2 0 0-.1 0-.2-.2 0 0-.2-.2-.3-.4 0-.2-.2-.4-.2-.6 0-.3-.1-.7-.1-1.1V27.2l-6.1 1.1v15.1c0 .6 0 1.2.2 1.7 0 .3.2.6.3.9.2.5.6 1.1 1.1 1.5.5.4 1 .8 1.7 1 .3.1.7.2 1 .3.2 0 .5.1.8.2.9.2 1.8.2 2.6.2s1.8 0 2.6-.2c.3 0 .6-.1.8-.2.4-.1.7-.2 1-.4.7-.3 1.3-.7 1.7-1.2.5-.5.8-1.1 1.1-1.7.1-.3.2-.7.3-1 .1-.6.2-1.3.2-1.9V25.5Z"/>
  <path class="clogo3" d="M175.5 8.8c-.2-.8-.5-1.5-1.1-2.2-.4-.5-.9-.8-1.4-1.1-.2-.1-.5-.2-.8-.3-.2 0-.5-.1-.8-.2h-2c-.3 0-.6 0-.8.2-.3 0-.5.2-.8.3-.6.3-1.1.7-1.4 1.2-.5.7-.8 1.6-1.1 2.4-.3 1.1-.4 2.3-.5 3.5v4.6c0 1.2.2 2.4.5 3.5.2.8.5 1.6 1.1 2.2.4.4.9.8 1.4.9.2 0 .5.1.8.1h.8c.3 0 .7 0 1-.1.4 0 .7-.1 1-.3.3 0 .6-.2.8-.3.3-.1.5-.3.8-.4.6-.4 1.1-.8 1.4-1.4.5-.7.8-1.5 1.1-2.3.3-1.1.4-2.1.5-3.2v-4c0-1.1-.2-2.1-.5-3.1Zm-3.9 9.5c0 .5 0 1-.2 1.5 0 .2 0 .3-.1.6 0 .3-.3 1-.9 1.1-.5 0-.8-.6-.9-.9 0-.2-.1-.4-.1-.6 0-.5-.1-1-.2-1.5 0-1.3-.1-2.6-.1-3.9s0-2.6.1-3.9c0-.5 0-1 .2-1.5 0-.2 0-.3.1-.6 0-.3.3-1 .9-1 .5 0 .8.7.9 1 0 .2.1.4.1.6 0 .5.1 1 .2 1.5 0 1.3.1 2.5.1 3.8s0 2.6-.1 3.8ZM164.2 5.4h-8v20.9l4.3-.8V14.8l3.3-.3v-2.4l-3.3.2V8h3.6V5.4ZM186.2 14.4l-.4-1c.1 0 .2-.1.4-.2.1 0 .2-.1.3-.2 0 0 .1 0 .2-.1.5-.4 1-.8 1.4-1.2.1-.1.2-.3.3-.4 0-.1.2-.3.2-.4.1-.2.2-.4.2-.7.1-.5.1-1.1 0-1.6 0-.3-.2-.5-.3-.8-.2-.3-.4-.6-.7-.8-.2-.2-.4-.3-.6-.4-.2-.1-.5-.3-.7-.4-.2 0-.4-.2-.7-.3h-.2c-.2 0-.3-.1-.5-.1-.4 0-.7-.1-1-.2-.5 0-1-.1-1.5-.1h-4.9v17.1l4.3-.8v-7.2l2.5 6.7 4.5-.8-2.7-6Zm-4.4-1.3V7.4h.3c.2 0 .4 0 .6.1.2 0 .3.1.5.2 0 0 .2.1.3.2 0 0 .2.2.2.3.2.2.3.4.4.6.1.3.2.5.2.9v1.1c0 .2 0 .4-.2.6v.2s0 .2-.1.3c0 0-.1.2-.2.3v.1l-.2.2-.1.1c-.1.1-.3.2-.4.3-.3.2-.6.3-.9.4Z"/>
  <path class="clogo0" d="M122.4.7h-10.7v40.7c0 1 0 2.2-.2 3.2-.2 1.1-.6 2.4-1.6 3-.3.2-.7.3-1.1.3s-.8 0-1.1-.3c-1-.6-1.4-1.9-1.6-3-.2-1.1-.2-2.2-.2-3.2V.8H95.2v39.4c0 3.4.4 7 2.1 10.1.3.6.7 1.1 1.2 1.7l.9.9c.3.3.6.5.8.7.4.3.8.5 1.2.7.1 0 .3.2.5.3.8.4 1.6.7 2.3.8 1.5.4 3.1.5 4.7.6 1.6 0 3.2-.2 4.7-.6.7-.2 1.4-.4 2.3-.8.2-.1.4-.2.5-.3.4-.2.8-.4 1.2-.7.3-.2.6-.4.8-.7l.9-.9c.5-.6.9-1.1 1.2-1.7 1.7-3 2.1-6.7 2.1-10.1V.8ZM147.2 47.9h-9.1V.7h-10.7v54.4h19.8v-7.2ZM22.7.7H7.1L0 55.2h10.2l.9-9.4H18l.9 9.4h10.7L22.7.7Zm-5.4 37.5h-5.4c0-.2.9-9.2 2.6-27v-.8.8c1.8 17.8 2.6 26.8 2.6 27ZM59.1 33.7c-.5-1.4-1.3-2.8-2.3-3.9-.4-.4-.8-.8-1.1-1-.5-.4-1.1-.8-1.8-1.2-.6-.3-1.3-.6-1.7-.8-.9-.3-1.8-.6-2.8-.8.1 0 .4-.1.9-.3.2 0 .5-.2.9-.3.7-.3 1.3-.6 2-1l.9-.6c.2-.1.4-.3.6-.5.4-.4.7-.6.8-.7.9-.9 1.6-1.9 2.1-2.9.4-.8.7-1.5.9-2.3.3-1.3.5-2.6.5-3.9 0-1.2-.1-2.1-.3-2.8-.2-1-.5-1.9-.8-2.6-.6-1.3-1.5-2.5-2.6-3.5-.3-.3-.8-.6-1.3-1s-1-.7-1.4-.9c-.9-.5-1.8-.8-2.8-1.1-1-.3-2-.5-2.9-.6-.9-.1-2-.2-3.1-.2H32.9v54.4h10.8c1.4 0 2.6 0 3.7-.2s2.1-.4 3.1-.7c1.2-.3 2.3-.9 3.4-1.6.4-.2.6-.5.9-.7.2-.2.5-.4.6-.6.3-.3.6-.5.8-.9.2-.2.6-.7.9-1.1.2-.2.3-.5.5-.8.3-.4.4-.7.6-1.1.1-.2.3-.5.4-.8.3-.8.6-1.6.8-2.4.2-1 .4-2 .5-3.2.1-1.6 0-3.2-.1-4.8-.1-1-.4-1.9-.7-2.8Zm-16-18.2V7.4c.7 0 1.2.1 1.6.3.5.2 1 .5 1.4.8.4.3.7.7 1.1 1.2.6 1 1.1 2.1 1.3 3.3.2.8.2 1.7.2 2.6s0 1.7-.2 2.6c-.2 1.2-.7 2.3-1.3 3.3-.3.5-.7.9-1.1 1.2-.4.3-.9.6-1.4.8-.4.1-.9.2-1.6.3v-8.1Zm6.1 25.1c0 .9-.3 1.8-.5 2.6-.2.9-.6 1.8-1.1 2.6-.3.4-.6.9-1 1.3-.3.3-.7.6-.9.7-.7.4-1.6.7-2.5.7V29.1c1.1 0 2.2.3 3.3.9.2.1.4.3.8.6.8.7 1.3 1.5 1.6 2.4.3.9.5 1.9.5 2.8.1 1.7.1 3.3 0 4.9ZM90.4 17.1c-.2-1.3-.5-2.5-.8-3.5-.6-2.1-1.4-4.2-2.6-6.1-.5-.8-1-1.6-1.6-2.2-.6-.7-1.3-1.3-2-1.9-.6-.5-1.4-.9-2.3-1.3-2-1-4.4-1.4-6.7-1.4h-11v54.5h11c2.3 0 4.6-.4 6.7-1.4.9-.4 1.6-.9 2.3-1.3.7-.5 1.4-1.2 2-1.9.6-.7 1.1-1.4 1.6-2.2 1.1-1.9 2-4 2.6-6.1.3-1 .5-2.1.8-3.5.2-1 .4-2.3.5-3.9.2-2.1.3-4.4.3-6.9 0-2.6-.1-4.9-.3-7-.1-1.6-.3-2.8-.5-3.9ZM79.9 37.3c-.2 1.5-.5 3-.8 4.4-.2.7-.4 1.5-.8 2.5s-.8 1.9-1.4 2.6c-.2.3-.5.6-.9.9-.5.4-1.2.7-1.9.7V7.6c.7 0 1.4.2 1.9.7.4.3.7.7.9.9.6.8 1 1.7 1.4 2.6.3.9.6 1.7.8 2.5.3 1.3.6 2.9.8 4.4.4 3.2.5 6.1.5 9.3s-.1 6.1-.5 9.3ZM228.5 38.7c-.2-1.8-.7-3.6-1.5-5.2-.5-1-1-1.9-1.5-2.7-.6-1-1.2-1.7-1.6-2.3-.2-.3-.5-.7-.9-1-.8-.9-1.7-1.9-2.6-2.8-1-1.1-2.4-2.4-3.4-3.5-.7-.8-1.1-1.2-1.3-1.5-.8-1-1.3-1.8-1.7-2.4-.4-.7-.7-1.3-1-1.9-.2-.4-.3-.8-.3-1-.3-1.1-.4-2.1-.4-3.2 0-.4 0-.7.1-1 .1-.6.4-1.3.8-1.8.5-.5 1.1-.7 1.8-.6.3 0 .8.2 1.1.4.4.3.7.7.9 1.2.1.3.2.5.3.7.3.9.5 1.7.5 2.5.1 1.2.2 2.4.2 3.9 0 .8 0 1.7-.2 3h10c0-1.3.1-2.4.1-3.4 0-1.2 0-2.3-.2-3.4-.1-1.1-.3-2.1-.5-2.8-.2-1-.5-1.8-.8-2.5-.3-.6-.6-1.3-1-2-.1-.2-.3-.5-.5-.7-.2-.3-.4-.5-.7-.9l-.3-.3c-.5-.5-1-.9-1.5-1.2-.6-.4-1.2-.7-1.8-1-.8-.3-1.5-.6-2.3-.7-1.7-.4-3.5-.4-5.2-.3-.9 0-1.8.2-2.7.5-.4.1-.9.3-1.3.5-.5.2-.9.4-1.2.6-1.4.8-2.7 2.1-3.7 3.5-.3.5-.5.9-.7 1.2-.7 1.4-1.1 2.9-1.3 4.4-.2 1.9-.2 3.9.1 5.8 0 .5.2 1.1.4 1.7.2.7.4 1.2.5 1.6.3.7.5 1.2.6 1.5.4.8.9 1.7 1.4 2.5.2.3.5.7.7 1 .1.2.3.4.5.7 1.1 1.3 1.8 2.1 2.2 2.5.7.8 1.8 1.9 3.2 3.3 0 .1.6.7 1.6 1.7.5.5.8.9 1.1 1.3.5.6.8 1 1 1.4.4.6.8 1.3 1.3 2.2 0 .2.2.4.3.6.2.4.2.6.3.7.1.4.2.9.4 1.5.1.5.2 1 .2 1.5v1.8c0 1.1-.2 2.1-.7 3.1-.2.4-.5.7-.9.9-.5.3-1.1.3-1.7.2h-.2c-.2 0-.3 0-.5-.2-.3-.2-.6-.4-.8-.7-.2-.3-.4-.7-.5-1-.2-.7-.4-1.3-.6-2 0-.2-.1-.7-.2-1.4 0-.4 0-.9-.1-1.4v-2.6c0-1.5.1-3.1.2-4.7h-10.5v1.2c0 .9 0 2-.1 2.6v2.4c0 .7 0 1.3.2 2 .1.9.2 1.6.3 2 .2 1 .4 1.8.7 2.5.2.7.6 1.5.9 2.2.2.4.5.8.7 1.2.2.3.4.6.6.8.3.4.6.8.9 1.1.2.2.5.4.7.7.1.1.3.3.5.4.6.4 1.1.8 1.6 1 1.2.7 2.5 1.1 3.9 1.4.6.1 1.2.2 1.6.2 1.4 0 2.9 0 4.4-.3 1-.2 2-.5 2.9-.9.6-.2 1.2-.6 1.8-1 .3-.2.5-.4.8-.6.2-.1.4-.3.6-.5.5-.5 1-1 1.3-1.4.4-.5.6-.8.7-1 .5-.8.8-1.5 1.1-2.2.2-.6.4-1 .4-1.2.3-1 .4-1.9.5-2.6.2-1.4.2-2.9.1-4.4 0-.6 0-1.1-.1-1.3ZM284.8.8H276v35.1-.1c-2.6-11.7-5.3-23.4-7.9-35h-11.6v54.4h8.8V20.6l8.4 34.6h11.1V.8ZM339.6.8h-23v7.3h6.1v47.1h10.7V8.1h6.1V.8ZM310.5.8h-15.6l-7.1 54.4H298l.9-9.4h6.8l.9 9.4h10.7L310.2.8Zm-5.3 37.5h-5.5c0-.1.9-9.4 2.7-27.8 1.8 18.4 2.7 27.6 2.7 27.8ZM363 47.9h-9.6V28.8h7.7v-6.7h-7.7V8.3h9.3V.8h-20.1v54.4H363V48ZM252.9 47.9h-9.6V28.8h7.7v-6.7h-7.7V8.3h9.3V.8h-20.1v54.4h20.4V48Z"/>
</svg>
